<?xml version="1.0" standalone="no"?>
<!DOCTYPE svg PUBLIC "-//W3C//DTD SVG 20010904//EN"
 "http://www.w3.org/TR/2001/REC-SVG-20010904/DTD/svg10.dtd">
<svg version="1.0" xmlns="http://www.w3.org/2000/svg"
 width="849.000000pt" height="849.000000pt" viewBox="0 0 849.000000 849.000000"
 preserveAspectRatio="xMidYMid meet">
<metadata>
Created by potrace 1.14, written by Peter Selinger 2001-2017
</metadata>
<g transform="translate(0.000000,849.000000) scale(0.100000,-0.100000)"
fill="#000000" stroke="none">
<path d="M4170 7839 c-322 -35 -611 -250 -756 -563 -42 -92 -82 -228 -90 -311
l-7 -65 -594 0 c-656 0 -634 2 -673 -63 -18 -28 -20 -51 -20 -189 l0 -158
-154 0 c-143 0 -155 -2 -187 -23 -69 -46 -64 82 -66 -1652 -2 -863 -3 -1808
-3 -2098 0 -291 -4 -526 -8 -523 -12 7 -106 -92 -128 -134 -27 -53 -24 -127 8
-180 39 -68 115 -142 197 -195 87 -55 134 -73 179 -70 21 2 32 -2 32 -10 0
-15 37 -28 125 -45 33 -6 78 -16 100 -20 88 -19 143 -30 210 -39 71 -10 103
-14 230 -26 39 -4 79 -9 90 -11 11 -2 211 -16 445 -31 390 -25 480 -27 1100
-28 371 0 754 3 850 8 96 4 227 10 290 13 132 6 475 30 565 40 95 10 271 36
285 41 8 4 19 5 24 4 19 -4 146 21 141 28 -2 5 6 6 18 4 12 -2 54 3 92 12 39
9 82 18 97 22 15 3 26 8 24 12 -2 3 8 7 22 7 26 1 114 39 157 66 68 44 169
125 190 152 87 114 85 231 -4 327 -25 27 -51 49 -58 49 -11 0 -13 398 -13
2095 0 2302 5 2124 -60 2179 -31 26 -34 26 -191 26 l-159 0 0 156 c0 173 -7
198 -66 235 -30 18 -57 19 -621 19 l-591 1 -6 47 c-53 377 -295 704 -616 830
-133 53 -274 74 -400 61z m208 -274 c107 -25 274 -123 340 -200 40 -46 89
-119 115 -170 30 -61 72 -194 80 -253 l5 -42 -561 2 c-309 1 -607 4 -663 6
l-100 3 8 67 c14 112 90 300 109 271 7 -10 8 -7 7 11 -2 15 2 24 9 23 7 -2 10
3 7 11 -3 8 27 46 73 93 62 63 96 87 165 121 144 70 273 88 406 57z m-1068
-1401 c0 -64 -2 -69 -39 -109 -133 -144 -29 -389 164 -389 68 0 114 18 161 61
21 20 42 37 46 38 3 0 10 4 15 9 5 5 3 6 -4 2 -16 -9 -16 -1 -1 27 13 24 28
167 17 167 -3 0 -14 18 -24 41 -10 22 -28 48 -39 57 -12 9 -20 24 -20 32 1 8
2 41 3 73 l1 57 665 0 665 0 0 -71 c0 -66 -2 -73 -34 -110 -91 -107 -68 -259
52 -343 34 -24 56 -31 106 -34 80 -5 123 9 172 56 21 20 45 35 54 34 11 -3 12
-1 3 8 -11 12 -7 43 6 36 3 -2 7 29 9 69 4 83 -15 138 -64 190 -26 26 -29 37
-29 97 l-1 68 711 0 710 0 0 -2110 0 -2110 -2362 0 -2363 0 0 2110 0 2110 710
0 710 0 0 -66z m-1693 -4216 c-1 -40 -3 -8 -3 72 0 80 2 112 3 73 2 -40 2
-106 0 -145z m5270 140 c-3 -7 -5 -2 -5 12 0 14 2 19 5 13 2 -7 2 -19 0 -25z
m0 -120 c-2 -13 -4 -5 -4 17 -1 22 1 32 4 23 2 -10 2 -28 0 -40z m-4888 -364
c2 -2 -12 -4 -32 -4 -20 0 -37 4 -37 10 0 8 58 3 69 -6z m108 0 c-3 -3 -12 -4
-19 -1 -8 3 -5 6 6 6 11 1 17 -2 13 -5z m90 0 c-3 -3 -12 -4 -19 -1 -8 3 -5 6
6 6 11 1 17 -2 13 -5z m3916 -1 c-7 -2 -19 -2 -25 0 -7 3 -2 5 12 5 14 0 19
-2 13 -5z m-314 -7 c-8 -8 -88 -10 -95 -3 -4 4 17 7 46 7 29 0 51 -2 49 -4z
m85 -5 c3 -4 -9 -7 -26 -5 -42 5 -49 14 -10 14 17 0 33 -4 36 -9z m-2571 -8
c-7 -2 -19 -2 -25 0 -7 3 -2 5 12 5 14 0 19 -2 13 -5z m120 0 c-7 -2 -19 -2
-25 0 -7 3 -2 5 12 5 14 0 19 -2 13 -5z m1884 1 c-3 -3 -12 -4 -19 -1 -8 3 -5
6 6 6 11 1 17 -2 13 -5z m-1250 -10 c-3 -3 -12 -4 -19 -1 -8 3 -5 6 6 6 11 1
17 -2 13 -5z m-523 -40 c3 -8 2 -12 -4 -9 -6 3 -10 10 -10 16 0 14 7 11 14 -7z
m43 -46 c-3 -8 -6 -5 -6 6 -1 11 2 17 5 13 3 -3 4 -12 1 -19z"/>
<path d="M6588 6213 c7 -3 16 -2 19 1 4 3 -2 6 -13 5 -11 0 -14 -3 -6 -6z"/>
<path d="M4901 6094 c0 -11 3 -14 6 -6 3 7 2 16 -1 19 -3 4 -6 -2 -5 -13z"/>
<path d="M1900 6080 c0 -5 5 -10 10 -10 6 0 10 5 10 10 0 6 -4 10 -10 10 -5 0
-10 -4 -10 -10z"/>
<path d="M1903 5968 c4 -46 7 -108 8 -138 0 -30 3 -49 6 -42 2 6 13 12 24 12
12 0 19 7 19 20 0 13 -7 20 -20 20 -21 0 -23 18 -25 173 0 20 -4 37 -9 37 -5
0 -6 -36 -3 -82z"/>
<path d="M1963 5933 c0 -8 6 -9 19 -2 10 5 18 11 18 12 0 2 -8 3 -18 3 -10 0
-19 -6 -19 -13z"/>
<path d="M5300 5905 c0 -8 2 -15 4 -15 2 0 6 7 10 15 3 8 1 15 -4 15 -6 0 -10
-7 -10 -15z"/>
<path d="M1955 5890 c-3 -5 -1 -10 4 -10 6 0 11 5 11 10 0 6 -2 10 -4 10 -3 0
-8 -4 -11 -10z"/>
<path d="M5296 5844 c-8 -22 -4 -25 11 -9 7 8 9 16 4 19 -5 3 -12 -1 -15 -10z"/>
<path d="M1930 5780 c0 -5 5 -10 10 -10 6 0 10 5 10 10 0 6 -4 10 -10 10 -5 0
-10 -4 -10 -10z"/>
<path d="M1900 5730 c0 -49 13 -80 24 -61 4 6 2 11 -3 11 -19 0 -12 33 12 58
16 18 17 24 6 19 -9 -3 -22 0 -28 6 -8 8 -11 -1 -11 -33z"/>
<path d="M1966 5626 c3 -8 1 -17 -5 -21 -14 -8 -14 -45 -1 -45 6 0 10 12 10
26 0 19 4 25 14 21 10 -4 13 -1 10 8 -3 7 -12 16 -19 19 -9 3 -12 0 -9 -8z"/>
<path d="M1901 5523 c2 -70 6 -63 11 20 2 26 0 47 -4 47 -5 0 -7 -30 -7 -67z"/>
<path d="M1955 5363 c-7 -25 -8 -26 -14 -9 -7 19 -8 19 -13 -2 -4 -14 -2 -20
5 -15 7 4 8 0 3 -13 -4 -10 -10 -26 -13 -34 -4 -13 -4 -13 6 0 9 13 11 12 12
-5 0 -15 2 -16 6 -5 3 8 11 19 17 23 7 6 4 7 -6 3 -21 -6 -23 7 -5 26 12 13
23 58 14 58 -3 0 -8 -12 -12 -27z"/>
<path d="M1991 5374 c0 -11 3 -14 6 -6 3 7 2 16 -1 19 -3 4 -6 -2 -5 -13z"/>
<path d="M1998 5343 c7 -3 16 -2 19 1 4 3 -2 6 -13 5 -11 0 -14 -3 -6 -6z"/>
<path d="M2006 5271 c-4 -5 -2 -20 3 -33 9 -21 9 -20 8 9 -2 36 -3 38 -11 24z"/>
<path d="M2058 5213 c7 -3 16 -2 19 1 4 3 -2 6 -13 5 -11 0 -14 -3 -6 -6z"/>
<path d="M1900 5140 c0 -33 4 -60 8 -60 4 0 8 27 7 60 0 33 -3 60 -7 60 -5 0
-8 -27 -8 -60z"/>
<path d="M2020 5175 c14 -8 32 -14 40 -14 8 0 0 6 -19 14 -42 19 -54 19 -21 0z"/>
<path d="M4065 5160 c-33 -5 -78 -7 -100 -5 -29 3 -33 2 -15 -4 22 -6 19 -8
-25 -15 -78 -12 -275 -72 -403 -122 -240 -93 -561 -283 -791 -468 -52 -41 -98
-73 -104 -69 -6 3 -7 2 -4 -4 3 -5 -26 -36 -66 -69 -160 -130 -258 -219 -277
-249 -45 -73 -20 -120 124 -234 19 -16 32 -32 28 -35 -4 -4 -2 -6 3 -4 16 5
195 -144 188 -155 -3 -6 -1 -7 4 -4 6 4 36 -14 67 -39 50 -41 73 -66 47 -49
-5 3 -12 1 -16 -4 -3 -6 4 -8 16 -6 15 3 39 -9 73 -36 28 -23 50 -45 49 -49
-1 -3 4 -7 10 -7 22 0 97 -55 90 -66 -3 -6 -1 -7 5 -3 14 9 85 -38 74 -49 -4
-5 -2 -5 4 -2 14 8 130 -60 126 -74 -1 -6 2 -8 7 -4 14 8 113 -49 103 -60 -4
-4 -2 -5 5 -1 14 8 64 -14 57 -25 -3 -5 3 -6 12 -2 13 5 15 3 9 -7 -5 -8 -4
-11 3 -7 5 4 18 4 28 0 16 -6 16 -7 -2 -14 -15 -6 -12 -8 12 -6 35 1 96 -21
89 -33 -3 -5 5 -6 17 -3 19 4 21 3 8 -7 -13 -10 -12 -11 3 -6 10 3 30 3 44 0
19 -5 22 -9 11 -16 -9 -7 -8 -8 6 -4 21 7 96 -13 96 -26 0 -5 4 -7 8 -4 4 3
39 -3 78 -13 38 -10 103 -25 144 -32 66 -12 71 -14 45 -21 -23 -6 -20 -6 12
-3 22 3 98 0 169 -5 137 -12 279 -3 440 26 49 9 101 17 116 18 16 0 28 4 28 7
0 11 88 29 106 22 11 -4 15 -2 11 4 -8 13 139 67 156 57 6 -4 9 -4 5 1 -4 4
35 27 87 50 51 23 124 59 160 79 36 20 71 34 76 31 5 -4 12 1 15 10 7 17 59
49 84 51 30 2 60 16 60 26 0 7 -4 7 -12 1 -15 -11 -48 -24 -48 -19 0 11 71 47
80 41 6 -4 9 -2 8 3 -4 14 93 82 106 75 6 -3 8 -3 4 2 -10 10 82 76 95 68 6
-3 7 -1 3 5 -3 6 8 21 26 33 18 13 61 47 96 76 35 29 68 51 73 47 5 -3 8 -1 7
4 -2 6 47 51 107 102 197 165 215 185 215 234 0 47 -33 87 -167 202 -331 284
-597 475 -835 599 -247 129 -413 191 -646 242 -94 20 -151 26 -292 28 -96 2
-202 0 -235 -5z m345 -366 c116 -27 311 -138 294 -166 -4 -6 -3 -8 3 -5 25 16
152 -149 191 -249 75 -190 66 -428 -23 -604 -86 -170 -258 -305 -446 -350
-333 -80 -662 74 -805 375 -50 104 -67 184 -67 300 1 98 23 217 58 307 48 124
179 259 325 334 138 70 321 93 470 58z m822 -383 c116 -52 347 -202 491 -317
l77 -63 -92 -73 c-176 -140 -338 -259 -445 -327 -106 -67 -233 -136 -233 -126
0 2 22 37 48 77 103 156 145 304 144 513 0 125 -10 184 -50 313 -6 17 -9 32
-7 32 2 0 32 -13 67 -29z m-1912 -15 c-49 -129 -59 -370 -22 -511 25 -92 52
-166 87 -235 13 -26 21 -51 17 -55 -4 -5 -2 -6 3 -3 6 4 24 -18 42 -48 l32
-54 -29 15 c-136 70 -401 245 -393 259 3 5 2 6 -4 3 -11 -7 -149 91 -145 104
1 5 -1 8 -5 7 -14 -5 -53 28 -45 37 4 5 2 5 -4 2 -15 -8 -56 22 -48 35 4 6 2
8 -4 5 -5 -4 -38 16 -71 44 -62 52 -72 62 -48 53 8 -3 42 14 76 38 348 241
431 290 546 328 26 9 27 7 15 -24z"/>
<path d="M4120 4542 c-109 -36 -182 -92 -239 -180 -55 -87 -74 -164 -69 -279
4 -90 9 -110 37 -168 117 -237 369 -326 611 -214 145 66 250 236 250 403 0 88
-69 128 -108 62 -55 -93 -169 -97 -229 -7 -34 50 -30 96 10 136 18 18 52 38
75 44 36 10 44 18 62 58 18 42 19 48 5 69 -8 12 -45 37 -82 56 -60 29 -77 33
-167 35 -77 2 -114 -1 -156 -15z"/>
<path d="M1930 5140 c8 -5 22 -9 30 -9 10 0 8 3 -5 9 -27 12 -43 12 -25 0z"/>
<path d="M1930 5070 c0 -5 5 -10 10 -10 6 0 10 5 10 10 0 6 -4 10 -10 10 -5 0
-10 -4 -10 -10z"/>
<path d="M1901 4953 c-1 -56 3 -93 9 -93 6 0 10 6 10 14 0 8 6 17 13 20 10 5
10 7 0 12 -7 3 -13 24 -14 47 -2 92 -17 91 -18 0z"/>
<path d="M1920 4773 c0 -28 3 -34 10 -23 13 20 13 47 0 55 -6 4 -10 -9 -10
-32z"/>
<path d="M1904 4690 c0 -63 1 -89 3 -57 2 31 2 83 0 115 -2 31 -3 5 -3 -58z"/>
<path d="M1922 4705 c0 -11 4 -31 8 -45 6 -20 8 -21 8 -5 0 11 -4 31 -8 45 -6
20 -8 21 -8 5z"/>
<path d="M1952 4700 c0 -14 2 -19 5 -12 2 6 2 18 0 25 -3 6 -5 1 -5 -13z"/>
<path d="M1901 4494 c0 -11 3 -14 6 -6 3 7 2 16 -1 19 -3 4 -6 -2 -5 -13z"/>
<path d="M1903 4405 c0 -27 2 -38 4 -22 2 15 2 37 0 50 -2 12 -4 0 -4 -28z"/>
<path d="M1952 4420 c0 -14 2 -19 5 -12 2 6 2 18 0 25 -3 6 -5 1 -5 -13z"/>
<path d="M1903 4280 c0 -25 2 -35 4 -22 2 12 2 32 0 45 -2 12 -4 2 -4 -23z"/>
<path d="M1903 4140 c0 -36 2 -50 4 -32 2 17 2 47 0 65 -2 17 -4 3 -4 -33z"/>
<path d="M1930 3836 c7 -7 13 -7 20 0 6 6 3 10 -10 10 -13 0 -16 -4 -10 -10z"/>
<path d="M1903 3745 c0 -27 2 -38 4 -22 2 15 2 37 0 50 -2 12 -4 0 -4 -28z"/>
<path d="M1925 3721 c0 -34 17 -52 29 -32 4 6 13 8 20 5 8 -3 17 0 22 7 4 7 3
10 -4 6 -18 -12 -40 4 -38 27 2 14 -3 22 -13 22 -12 0 -16 -10 -16 -35z m25
-21 c0 -5 -4 -10 -10 -10 -5 0 -10 5 -10 10 0 6 5 10 10 10 6 0 10 -4 10 -10z"/>
<path d="M1901 3674 c0 -11 3 -14 6 -6 3 7 2 16 -1 19 -3 4 -6 -2 -5 -13z"/>
<path d="M1901 3634 c0 -11 3 -14 6 -6 3 7 2 16 -1 19 -3 4 -6 -2 -5 -13z"/>
<path d="M5745 3610 c3 -5 8 -10 11 -10 2 0 4 5 4 10 0 6 -5 10 -11 10 -5 0
-7 -4 -4 -10z"/>
<path d="M5536 3465 c-9 -26 -7 -32 5 -12 6 10 9 21 6 23 -2 3 -7 -2 -11 -11z"/>
<path d="M1970 3380 c0 -5 5 -10 10 -10 6 0 10 5 10 10 0 6 -4 10 -10 10 -5 0
-10 -4 -10 -10z"/>
<path d="M5390 3370 c0 -5 5 -10 10 -10 6 0 10 5 10 10 0 6 -4 10 -10 10 -5 0
-10 -4 -10 -10z"/>
<path d="M5105 3220 c-3 -6 1 -7 9 -4 18 7 21 14 7 14 -6 0 -13 -4 -16 -10z"/>
<path d="M3617 3129 c7 -7 15 -10 18 -7 3 3 -2 9 -12 12 -14 6 -15 5 -6 -5z"/>
<path d="M4658 3063 c7 -3 16 -2 19 1 4 3 -2 6 -13 5 -11 0 -14 -3 -6 -6z"/>
<path d="M1900 2968 c0 -36 4 -35 14 5 4 16 2 27 -4 27 -5 0 -10 -14 -10 -32z"/>
<path d="M1904 2825 c0 -60 1 -84 3 -52 2 32 2 81 0 110 -2 29 -3 3 -3 -58z"/>
<path d="M1903 2600 c0 -47 2 -66 4 -42 2 23 2 61 0 85 -2 23 -4 4 -4 -43z"/>
<path d="M1902 2088 c-2 -59 2 -66 28 -47 13 9 12 10 -2 5 -14 -4 -18 3 -21
47 l-3 52 -2 -57z"/>
</g>
</svg>
